<svg width="27" height="27" viewBox="0 0 27 27" fill="none" xmlns="http://www.w3.org/2000/svg">
<path d="M11.3383 14.9031C13.3632 14.9031 15.0047 13.2616 15.0047 11.2367C15.0047 9.21181 13.3632 7.57031 11.3383 7.57031C9.31338 7.57031 7.67188 9.21181 7.67188 11.2367C7.67188 13.2616 9.31338 14.9031 11.3383 14.9031Z" fill="#FCBC04"/>
<path d="M15.0047 11.2367C15.0047 12.2091 14.6184 13.1417 13.9308 13.8293C13.2432 14.5168 12.3107 14.9031 11.3383 14.9031C10.3659 14.9031 9.43333 14.5168 8.74575 13.8293C8.05817 13.1417 7.67189 12.2091 7.67189 11.2367C7.67024 10.6335 7.81993 10.0394 8.10727 9.50894C8.55141 10.0249 9.13091 10.4064 9.78038 10.6105C10.4298 10.8146 11.1234 10.833 11.7828 10.6639L10.0505 8.16612C9.98616 8.07306 9.92946 7.97497 9.88089 7.87281C10.3404 7.67175 10.8367 7.56873 11.3383 7.57033C11.8198 7.57033 12.2965 7.66516 12.7414 7.84942C13.1862 8.03367 13.5904 8.30374 13.9308 8.64419C14.2713 8.98465 14.5413 9.38883 14.7256 9.83366C14.9098 10.2785 15.0047 10.7553 15.0047 11.2367Z" fill="#E59730"/>
<path d="M6.32812 10.8252L6.64893 9.96634C6.8191 9.51078 7.16327 9.14147 7.60573 8.93967C8.04819 8.73786 8.5527 8.72009 9.00826 8.89025L8.68745 9.74911C8.51728 10.2047 8.17311 10.574 7.73065 10.7758C7.28819 10.9776 6.78369 10.9954 6.32812 10.8252Z" fill="#7AB92D"/>
<path d="M9.0046 8.89469L8.68379 9.75171C8.51386 10.2066 8.17037 10.5755 7.72872 10.7775C7.28707 10.9794 6.78335 10.9978 6.32812 10.8287L6.63977 9.9992C7.0629 10.0757 7.49946 10.001 7.8731 9.78822C8.24674 9.57542 8.5337 9.23806 8.68379 8.83511L8.69295 8.80762C8.79866 8.82964 8.90278 8.85873 9.0046 8.89469Z" fill="#5BA006"/>
<path d="M9.04632 9.40305C8.92478 9.40303 8.80823 9.35473 8.7223 9.26877L7.3474 7.89387C7.26392 7.80744 7.21772 7.69167 7.21877 7.57151C7.21981 7.45134 7.26801 7.33639 7.35298 7.25142C7.43796 7.16645 7.5529 7.11825 7.67307 7.1172C7.79323 7.11616 7.909 7.16235 7.99544 7.24584L9.37034 8.62074C9.43441 8.68483 9.47804 8.76648 9.49572 8.85537C9.51339 8.94426 9.50432 9.03639 9.46964 9.12013C9.43496 9.20386 9.37623 9.27543 9.30088 9.32579C9.22553 9.37615 9.13695 9.40304 9.04632 9.40305Z" fill="#A1D51C"/>
<path d="M12.3973 6.55832L8.97656 4.29982L10.335 2.98633L12.9619 5.70313L12.3973 6.55832Z" fill="#7AB92D"/>
<path d="M12.9638 5.70507L12.3955 6.55751L8.97656 4.30268L9.44861 3.84438L10.6264 4.6189C10.8288 4.75346 11.0729 4.81042 11.3139 4.77931L10.9977 3.6748L12.9638 5.70507Z" fill="#5BA006"/>
<path d="M13.1873 6.10049L12.9417 2.00879L11.125 2.5285L12.1644 6.1619L13.1873 6.10049Z" fill="#A1D51C"/>
<path d="M13.1873 6.09895L12.1608 6.16312L11.125 2.5288L11.8308 2.32715L12.1103 3.30791C12.1734 3.53129 12.2964 3.73313 12.4661 3.89149C12.6358 4.04986 12.8456 4.15869 13.0728 4.20618L13.1873 6.09895Z" fill="#7AB92D"/>
<path d="M17.5991 14.6649C17.2744 14.8523 16.8912 14.9108 16.5254 14.8289C16.1596 14.747 15.838 14.5306 15.6243 14.2227L11.4217 8.16578C11.2559 7.92632 11.1415 7.65511 11.0858 7.36925C11.0301 7.08339 11.0342 6.78909 11.0979 6.5049C11.1616 6.22071 11.2835 5.95279 11.4558 5.71805C11.6282 5.48331 11.8474 5.28683 12.0995 5.14101C12.3521 4.99513 12.6321 4.90325 12.9221 4.87118C13.212 4.83911 13.5054 4.86754 13.7837 4.95468C14.0621 5.04182 14.3193 5.18578 14.5392 5.37743C14.759 5.56909 14.9367 5.80429 15.061 6.06815L18.2036 12.7355C18.3628 13.0744 18.3891 13.4607 18.2771 13.818C18.1652 14.1752 17.9232 14.4775 17.5991 14.6649Z" fill="#F9E109"/>
<path d="M17.6002 14.6635C17.2758 14.8512 16.8927 14.9101 16.5268 14.8286C16.161 14.7471 15.8391 14.5312 15.625 14.2236L11.4224 8.16485C11.1232 7.7341 10.9959 7.20708 11.0654 6.68728C11.135 6.16747 11.3963 5.69244 11.7982 5.35547L14.713 10.1172C14.9096 10.4363 15.2186 10.6702 15.5791 10.7728C15.9396 10.8754 16.3255 10.8394 16.6607 10.6717C16.8203 10.5924 16.9634 10.4836 17.0824 10.3509L18.2052 12.7341C18.3645 13.073 18.3908 13.4594 18.2787 13.8167C18.1667 14.174 17.9245 14.4763 17.6002 14.6635Z" fill="#FCBC04"/>
<path d="M13.5377 8.54141L12.2178 9.30677L11.6953 8.55516C11.7048 8.54602 11.7157 8.5383 11.7274 8.53224L13.0794 7.74855C13.1853 7.68858 13.3106 7.67275 13.4281 7.70449C13.5456 7.73623 13.6459 7.81298 13.7072 7.91812C13.7376 7.97005 13.7572 8.02749 13.7651 8.0871C13.773 8.14672 13.7689 8.2073 13.7532 8.26532C13.7374 8.32334 13.7102 8.37764 13.6732 8.42504C13.6362 8.47244 13.5901 8.512 13.5377 8.54141Z" fill="#E59730"/>
<path d="M13.4223 6.49671C13.3918 6.44468 13.3719 6.38714 13.3636 6.32739C13.3554 6.26764 13.3591 6.20686 13.3744 6.14853C13.3898 6.0902 13.4164 6.03547 13.453 5.98747C13.4895 5.93948 13.5351 5.89916 13.5873 5.86884L14.5039 5.3418C14.7435 5.53801 14.9361 5.78545 15.0676 6.06591L15.0721 6.07508C15.0697 6.07757 15.0665 6.07917 15.063 6.07966L14.0456 6.66628C13.9403 6.72603 13.8157 6.74174 13.699 6.70997C13.5822 6.6782 13.4827 6.60154 13.4223 6.49671Z" fill="#E59730"/>
<path d="M15.2535 9.673C15.3132 9.77824 15.3289 9.90283 15.2972 10.0196C15.2654 10.1364 15.1887 10.2358 15.0839 10.2963L13.5303 11.1946L13.0078 10.4429C13.0173 10.4338 13.0282 10.4261 13.0399 10.42L14.6256 9.50343C14.7315 9.44346 14.8568 9.42763 14.9743 9.45937C15.0919 9.49111 15.1921 9.56786 15.2535 9.673Z" fill="#E59730"/>
<path d="M14.7279 7.85322L15.6216 7.33992C15.6353 7.33534 15.6445 7.32617 15.6582 7.32617L16.0478 8.15111L15.1862 8.65066C15.0809 8.71041 14.9564 8.72611 14.8396 8.69434C14.7228 8.66258 14.6233 8.58591 14.5629 8.48109C14.5324 8.42905 14.5125 8.37151 14.5043 8.31176C14.4961 8.25201 14.4997 8.19123 14.515 8.1329C14.5304 8.07457 14.5571 8.01984 14.5936 7.97185C14.6301 7.92385 14.6757 7.88354 14.7279 7.85322Z" fill="#E59730"/>
<path d="M17.4148 11.0659L16.3928 11.6571C16.2868 11.7167 16.1616 11.7323 16.0442 11.7006C15.9268 11.6689 15.8265 11.5924 15.7649 11.4875C15.7346 11.4356 15.7149 11.3781 15.707 11.3185C15.6991 11.2589 15.7032 11.1983 15.719 11.1403C15.7348 11.0823 15.762 11.028 15.799 10.9806C15.836 10.9332 15.882 10.8936 15.9345 10.8642L16.9932 10.2501C17.0025 10.2428 17.0135 10.2381 17.0252 10.2363L17.4148 11.0659Z" fill="#E59730"/>
<path d="M20.9634 11.1367C22.2289 11.1367 23.2549 10.1108 23.2549 8.84521C23.2549 7.57965 22.2289 6.55371 20.9634 6.55371C19.6978 6.55371 18.6719 7.57965 18.6719 8.84521C18.6719 10.1108 19.6978 11.1367 20.9634 11.1367Z" fill="#5BA006"/>
<path d="M17.539 8.82792C18.2983 8.82792 18.9139 8.21236 18.9139 7.45302C18.9139 6.69369 18.2983 6.07812 17.539 6.07812C16.7796 6.07812 16.1641 6.69369 16.1641 7.45302C16.1641 8.21236 16.7796 8.82792 17.539 8.82792Z" fill="#5BA006"/>
<path d="M26.8706 8.055C26.9173 7.88046 26.9292 7.69843 26.9056 7.5193C26.882 7.34016 26.8233 7.16744 26.7329 7.01097C26.6426 6.85451 26.5223 6.71738 26.3789 6.60742C26.2355 6.49745 26.0719 6.41679 25.8974 6.37006C25.7228 6.32333 25.5408 6.31143 25.3617 6.33505C25.1825 6.35866 25.0098 6.41733 24.8534 6.5077C24.5374 6.69021 24.3068 6.99077 24.2124 7.34326C24.1526 7.57235 24.1535 7.8131 24.2152 8.04171C23.9558 8.12016 23.7252 8.27324 23.5522 8.48185C23.3792 8.69046 23.2714 8.94538 23.2424 9.21483C23.2133 9.48428 23.2641 9.75633 23.3886 9.99706C23.5131 10.2378 23.7057 10.4366 23.9424 10.5686C24.1791 10.7006 24.4494 10.76 24.7196 10.7394C24.9898 10.7188 25.248 10.6192 25.462 10.4528C25.6759 10.2865 25.8362 10.0609 25.9228 9.80407C26.0094 9.54727 26.0185 9.27066 25.9489 9.00872C26.1707 8.94064 26.3715 8.81744 26.5327 8.65065C26.6939 8.48386 26.8101 8.27893 26.8706 8.055Z" fill="#5BA006"/>
<path d="M23.1235 6.10257L20.9333 10.7346L19.9062 5.71484L17.8984 6.12548L18.9136 11.1892L17.9768 14.687L21.5181 15.6361L22.4727 12.0738L24.8944 6.57691L23.1235 6.10257Z" fill="#C4F236"/>
<path d="M21.5511 14.9394L21.6932 14.9761L21.519 15.6361L17.9763 14.6874L18.9159 11.1905L17.8984 6.12634L19.9058 5.71387L20.5153 8.68823C20.2956 8.71241 20.0734 8.69531 19.86 8.63782C19.6838 8.59041 19.5167 8.51455 19.365 8.41325L19.6583 9.87523C19.7732 10.437 19.7544 11.0178 19.6033 11.5709C19.4162 12.2759 19.5162 13.0262 19.8813 13.6576C20.2464 14.289 20.8468 14.7499 21.5511 14.9394Z" fill="#A1D51C"/>
<path d="M24.9013 6.57459L23.5035 9.74144C23.1496 9.87317 22.7634 9.8908 22.399 9.79185C22.0972 9.71256 21.822 9.55438 21.6016 9.33355L23.1277 6.10254L24.9013 6.57459Z" fill="#A1D51C"/>
<path d="M26.5825 5.60448C26.6732 5.2729 26.6877 4.9251 26.625 4.58711C26.5623 4.24912 26.424 3.92969 26.2204 3.65271C26.0168 3.37572 25.7532 3.14836 25.4493 2.98763C25.1455 2.8269 24.8092 2.73695 24.4656 2.72453C24.5131 2.19005 24.371 1.65592 24.0643 1.21564C23.7576 0.775361 23.3058 0.457004 22.788 0.316311C22.2702 0.175618 21.7194 0.221556 21.2321 0.44608C20.7447 0.670604 20.3519 1.05941 20.1223 1.54441C19.5891 1.50166 19.0577 1.64704 18.6205 1.95531C18.1833 2.26357 17.8679 2.71525 17.7291 3.23187C17.7117 3.31082 17.6987 3.39069 17.6901 3.4711C17.4311 3.53559 17.1893 3.65609 16.9818 3.8241C16.7744 3.99211 16.6062 4.20355 16.4893 4.44354C16.3723 4.68353 16.3094 4.94624 16.3049 5.21317C16.3005 5.48011 16.3546 5.74477 16.4634 5.98855C16.5722 6.23232 16.7332 6.44928 16.9349 6.62414C17.1367 6.79901 17.3743 6.92753 17.631 7.00067C17.8878 7.0738 18.1574 7.08978 18.421 7.04746C18.6846 7.00514 18.9357 6.90556 19.1567 6.75573C19.2594 6.97059 19.4035 7.16301 19.5809 7.32195C19.7582 7.48088 19.9652 7.60318 20.1899 7.6818C20.4147 7.76043 20.6528 7.79384 20.8905 7.7801C21.1283 7.76636 21.3609 7.70575 21.5752 7.60175C21.69 8.02606 21.9542 8.39465 22.3191 8.63975C22.684 8.88486 23.1252 8.99001 23.5614 8.93587C23.9977 8.88174 24.3997 8.67196 24.6936 8.3451C24.9876 8.01824 25.1537 7.59627 25.1613 7.15675C25.5054 7.03095 25.8141 6.82425 26.0614 6.55409C26.3088 6.28392 26.4875 5.95823 26.5825 5.60448Z" fill="#A1D51C"/>
<path d="M26.6467 4.84363C26.669 5.09929 26.6457 5.35688 26.5779 5.6044C26.4832 5.95837 26.3046 6.28433 26.0573 6.55474C25.81 6.82516 25.5013 7.03208 25.1572 7.15804C25.1554 7.30055 25.1354 7.44225 25.0976 7.57968C24.9948 7.96763 24.7672 8.31097 24.4499 8.55675C24.1326 8.80254 23.7433 8.93711 23.3419 8.93971C22.9406 8.94232 22.5495 8.81281 22.2291 8.57117C21.9086 8.32953 21.6766 7.98917 21.5687 7.60259C21.1796 7.79149 20.7354 7.8338 20.3176 7.72175C20.0655 7.65357 19.831 7.53191 19.6302 7.36505C19.4293 7.19819 19.2667 6.99003 19.1535 6.75474C18.9327 6.90557 18.6815 7.0061 18.4176 7.0492C18.1537 7.0923 17.8836 7.07693 17.6263 7.00418C17.369 6.93142 17.1308 6.80306 16.9285 6.62816C16.7263 6.45325 16.5649 6.23607 16.4558 5.99195C16.3467 5.74784 16.2926 5.48274 16.2971 5.2154C16.3017 4.94805 16.365 4.68497 16.4824 4.44475C16.5998 4.20452 16.7686 3.99301 16.9767 3.82515C17.1848 3.65729 17.4273 3.53719 17.6869 3.47331C17.6921 3.39294 17.7043 3.31319 17.7236 3.23499C17.8389 2.79687 18.0823 2.40315 18.4228 2.1043C18.7633 1.80545 19.1853 1.61509 19.6347 1.55762C19.6016 1.72672 19.5847 1.8986 19.5843 2.07091C19.5843 2.8002 19.874 3.49963 20.3897 4.01531C20.9054 4.531 21.6048 4.82071 22.3341 4.82071C22.4122 4.82083 22.4902 4.81624 22.5678 4.80696C22.8219 5.09618 23.1341 5.32853 23.4842 5.48884C23.8342 5.64914 24.2141 5.73379 24.599 5.73725C24.984 5.74071 25.3654 5.66291 25.7182 5.50892C26.071 5.35493 26.3874 5.12823 26.6467 4.84363Z" fill="#7AB92D"/>
<path d="M20.8705 26.8177H6.38823C5.72632 26.8178 5.08661 26.5791 4.58654 26.1454C4.08646 25.7118 3.75959 25.1123 3.66593 24.457L2.17188 13.9854H25.0869L23.591 24.457C23.4974 25.112 23.1707 25.7112 22.6711 26.1448C22.1714 26.5784 21.5321 26.8173 20.8705 26.8177Z" fill="#57B7EB"/>
<path d="M10.3709 14.902H5.11874L5.17374 15.2823C5.48512 17.4669 6.57445 19.4656 8.24154 20.9113C9.90863 22.3569 12.0415 23.1523 14.2481 23.1513H23.162C23.3735 23.1527 23.5844 23.128 23.7899 23.078L23.5928 24.4575C23.4977 25.1121 23.1704 25.7106 22.6706 26.1439C22.1708 26.5772 21.5319 26.8164 20.8705 26.8177H6.38823C5.72679 26.8164 5.08789 26.5772 4.58812 26.1439C4.08836 25.7106 3.76105 25.1121 3.66593 24.4575L2.17188 13.9854H25.0869L24.954 14.902H14.2939C14.3059 15.0276 14.2903 15.1543 14.2481 15.2732C14.1689 15.5028 14.0019 15.6916 13.7836 15.7982C13.5654 15.9047 13.3137 15.9203 13.084 15.8415L10.3709 14.902Z" fill="#4891D3"/>
<path d="M26.0007 12.1533H1.25254C0.746313 12.1533 0.335938 12.5637 0.335938 13.0699C0.335938 13.5761 0.746313 13.9865 1.25254 13.9865H26.0007C26.5069 13.9865 26.9173 13.5761 26.9173 13.0699C26.9173 12.5637 26.5069 12.1533 26.0007 12.1533Z" fill="#84D2F4"/>
<path d="M14.5441 18.5699C14.5441 18.0637 14.1338 17.6533 13.6275 17.6533C13.1213 17.6533 12.7109 18.0637 12.7109 18.5699V24.0695C12.7109 24.5757 13.1213 24.9861 13.6275 24.9861C14.1338 24.9861 14.5441 24.5757 14.5441 24.0695V18.5699Z" fill="#2D72BC"/>
<path d="M18.2082 18.5699C18.2082 18.0637 17.7978 17.6533 17.2916 17.6533C16.7854 17.6533 16.375 18.0637 16.375 18.5699V24.0695C16.375 24.5757 16.7854 24.9861 17.2916 24.9861C17.7978 24.9861 18.2082 24.5757 18.2082 24.0695V18.5699Z" fill="#2D72BC"/>
<path d="M7.2082 18.5699C7.2082 18.0637 6.79782 17.6533 6.2916 17.6533C5.78538 17.6533 5.375 18.0637 5.375 18.5699V24.0695C5.375 24.5757 5.78538 24.9861 6.2916 24.9861C6.79782 24.9861 7.2082 24.5757 7.2082 24.0695V18.5699Z" fill="#2D72BC"/>
<path d="M10.8801 18.5699C10.8801 18.0637 10.4697 17.6533 9.96347 17.6533C9.45725 17.6533 9.04688 18.0637 9.04688 18.5699V24.0695C9.04688 24.5757 9.45725 24.9861 9.96347 24.9861C10.4697 24.9861 10.8801 24.5757 10.8801 24.0695V18.5699Z" fill="#2D72BC"/>
<path d="M26.9173 13.0699C26.9155 13.3125 26.8184 13.5446 26.6469 13.7161C26.4754 13.8876 26.2433 13.9847 26.0007 13.9865H1.25254C1.00966 13.9858 0.776943 13.889 0.605205 13.7173C0.433466 13.5455 0.336663 13.3128 0.335938 13.0699C0.337736 12.8274 0.434884 12.5953 0.606391 12.4238C0.777899 12.2523 1.01 12.1551 1.25254 12.1533H1.39461C1.41502 12.3815 1.51979 12.5939 1.68844 12.749C1.85709 12.9041 2.07751 12.9908 2.30663 12.992H7.0317L4.60729 12.1533H13.8787L13.9704 12.1854C15.5141 12.718 17.1357 12.9906 18.7688 12.992H26.9127C26.9167 13.0178 26.9182 13.0439 26.9173 13.0699Z" fill="#57B7EB"/>
<path d="M2.00471 8.99411C1.52632 8.82858 1.00433 9.08219 0.838791 9.56057C0.673255 10.039 0.926867 10.561 1.40525 10.7265L13.5319 14.9227C14.0102 15.0882 14.5322 14.8346 14.6978 14.3562C14.8633 13.8778 14.6097 13.3558 14.1313 13.1903L2.00471 8.99411Z" fill="#84D2F4"/>
<path d="M14.7054 14.3563C14.6262 14.5859 14.4592 14.7747 14.2409 14.8813C14.0226 14.9878 13.771 15.0034 13.5413 14.9246L1.41467 10.7266C1.2146 10.6584 1.0444 10.5229 0.933215 10.3432C0.822026 10.1634 0.776751 9.95065 0.805134 9.74121C0.852883 9.76958 0.903599 9.79264 0.956373 9.80996L13.083 14.008C13.3127 14.0868 13.5643 14.0712 13.7826 13.9647C14.0009 13.8581 14.1679 13.6693 14.2471 13.4397C14.2651 13.3812 14.2789 13.3215 14.2883 13.261C14.4756 13.3653 14.6201 13.5323 14.6963 13.7327C14.7726 13.933 14.7758 14.1538 14.7054 14.3563Z" fill="#57B7EB"/>
</svg>