<svg width="28" height="26" viewBox="0 0 28 26" fill="none" xmlns="http://www.w3.org/2000/svg">
<path d="M23.3672 11.7266L22.1794 1.3457H12.817L10.1822 11.7269L23.3672 11.7266Z" fill="#D1F7FF"/>
<path d="M13.1484 11.7268L10.1886 11.7269L12.8234 1.3457H13.1484V11.7268Z" fill="#A3EFFF"/>
<path d="M9.13748 11.5305L11.723 1.34375H13.3281C13.3281 1.40799 13.3211 1.47312 13.3046 1.5382L10.6698 11.9194C10.579 12.2773 10.2573 12.5155 9.90426 12.5155C9.83992 12.5155 9.77447 12.5076 9.70923 12.491C9.28608 12.3837 9.03009 11.9536 9.13748 11.5305Z" fill="#8AA818"/>
<path d="M16.1641 11.5668C16.1641 12.0033 15.8102 12.3573 15.3736 12.3573C14.9371 12.3573 14.5832 12.0033 14.5832 11.5668V1.34375H16.1641V11.5668Z" fill="#B4D241"/>
<path d="M22.998 1.34375L24.0417 10.4757C24.0913 10.9094 23.7798 11.3013 23.3461 11.3508C23.3156 11.3543 23.2853 11.356 23.2554 11.356C22.859 11.356 22.5171 11.0585 22.471 10.6553L21.4171 1.43354C21.4136 1.40335 21.4123 1.37347 21.4123 1.3438H22.998V1.34375Z" fill="#B4D241"/>
<path d="M11.2358 2.13557H23.233C23.6695 2.13557 24.0234 1.78166 24.0234 1.34513C24.0234 0.908593 23.6695 0.554688 23.233 0.554688H11.2358C10.7992 0.554688 10.4453 0.908593 10.4453 1.34513C10.4453 1.78166 10.7992 2.13557 11.2358 2.13557Z" fill="#8AA818"/>
<path d="M11.2425 0.554688H13.1484V2.13557H11.2425C10.806 2.13557 10.4521 1.78166 10.4521 1.34513C10.4521 0.908593 10.806 0.554688 11.2425 0.554688Z" fill="#738C28"/>
<path d="M5.40625 12.5176V7.99182C5.40625 6.97484 4.57887 6.14746 3.56189 6.14746H2.87684C2.44031 6.14746 2.08641 6.50137 2.08641 6.9379C2.08641 7.37443 2.44031 7.72834 2.87684 7.72834H3.56189C3.70717 7.72834 3.82537 7.84654 3.82537 7.99182V12.5176H5.40625Z" fill="#738C28"/>
<path d="M13.8486 19.7904H24.7017C25.1383 19.7904 25.4922 19.4365 25.4922 18.9999V13.5723C25.4922 12.1172 24.3125 10.9375 22.8574 10.9375H19.1743L13.0583 15.2698V18.9999C13.0582 19.4365 13.4121 19.7904 13.8486 19.7904Z" fill="#5A781E"/>
<path d="M1.35447 10.9365H19.0156C15.5672 11.9944 13.0528 15.2084 13.0528 18.999C13.0528 19.2655 13.0654 19.5291 13.0896 19.7894H1.35447C0.91794 19.7894 0.564032 19.4355 0.564032 18.999V11.727C0.564032 11.2904 0.91794 10.9365 1.35447 10.9365Z" fill="#C5ED4E"/>
<path d="M1.35361 10.9375H13.1484V17.7255C13.0851 18.1412 13.0519 18.5667 13.0519 18.9999C13.0519 19.2664 13.0645 19.53 13.0888 19.7903H1.35361C0.917076 19.7903 0.563169 19.4364 0.563169 18.9999V11.7279C0.563169 11.2914 0.917076 10.9375 1.35361 10.9375Z" fill="#9EBD2A"/>
<path d="M13.1502 21.075C13.19 21.075 13.2304 21.072 13.271 21.0658C13.7025 20.9996 13.9987 20.5962 13.9325 20.1647C13.8739 19.7824 13.8441 19.3909 13.8441 19.0011C13.8441 14.7878 17.2718 11.3602 21.4851 11.3602C23.2404 11.3602 24.892 11.9416 26.2614 13.0415C26.6018 13.3148 27.0993 13.2605 27.3727 12.9202C27.646 12.5799 27.5918 12.0824 27.2514 11.809C25.6219 10.5001 23.5741 9.7793 21.4851 9.7793C16.4001 9.7793 12.2633 13.9162 12.2633 19.0011C12.2633 19.4709 12.2991 19.943 12.3699 20.4043C12.4298 20.7952 12.7666 21.075 13.1502 21.075Z" fill="#8AA818"/>
<path d="M13.1484 21.0741C12.7648 21.0741 12.4281 20.7943 12.3681 20.4034C12.2973 19.9421 12.2615 19.47 12.2615 19.0002C12.2615 17.59 12.5801 16.253 13.1484 15.0566V21.0741Z" fill="#738C28"/>
<path d="M21.4712 25.0576C24.8127 25.0576 27.5312 22.339 27.5312 18.9975C27.5312 15.656 24.8127 12.9375 21.4712 12.9375C18.1296 12.9375 15.4111 15.656 15.4111 18.9975C15.4111 22.339 18.1296 25.0576 21.4712 25.0576Z" fill="#2E2C27"/>
<path d="M21.4733 21.1068C20.3091 21.1033 19.3683 20.1568 19.3718 18.9927C19.3752 17.8285 20.3218 16.8876 21.4859 16.8911C22.65 16.8946 23.5909 17.8412 23.5874 19.0053C23.5839 20.1694 22.6374 21.1103 21.4733 21.1068Z" fill="#D6D3C5"/>
<path d="M21.4689 21.8962C23.067 21.8962 24.3672 20.596 24.3672 18.9979C24.3672 17.3998 23.067 16.0996 21.4689 16.0996C19.8708 16.0996 18.5706 17.3998 18.5706 18.9979C18.5706 20.596 19.8708 21.8962 21.4689 21.8962ZM21.4689 17.6805C22.1953 17.6805 22.7864 18.2715 22.7864 18.9979C22.7864 19.7243 22.1954 20.3153 21.4689 20.3153C20.7425 20.3153 20.1515 19.7243 20.1515 18.9979C20.1515 18.2715 20.7425 17.6805 21.4689 17.6805Z" fill="#878477"/>
<path d="M6.40366 25.0589C8.87346 25.0589 10.8828 23.0495 10.8828 20.5797C10.8828 18.1099 8.87346 16.1006 6.40366 16.1006C3.9338 16.1006 1.9245 18.1099 1.9245 20.5797C1.92445 23.0495 3.9338 25.0589 6.40366 25.0589Z" fill="#2E2C27"/>
<path d="M6.40779 22.6883C7.57005 22.6883 8.51562 21.7428 8.51562 20.5805C8.51562 19.4182 7.57005 18.4727 6.40779 18.4727C5.24553 18.4727 4.29995 19.4182 4.29995 20.5805C4.29995 21.7428 5.24553 22.6883 6.40779 22.6883Z" fill="#787465"/>
<path d="M6.39706 21.3699C5.96051 21.3699 5.60662 21.016 5.60662 20.5795C5.60662 20.143 5.96051 19.7891 6.39706 19.7891C6.83361 19.7891 7.1875 20.143 7.1875 20.5795C7.1875 21.016 6.83361 21.3699 6.39706 21.3699Z" fill="#C4C0AD"/>
</svg>
